<svg xmlns="http://www.w3.org/2000/svg" viewBox="0 0 43.074 42.35" class="minimize-image_uj1BD"><g data-name="Layer 2" transform="translate(-11.86 -14.678)"><path d="M27.041 53.253c-1.064-1.771-2.107-3.505-3.087-5.276-.352-.636-.583-.81-1.592-.794-3.331.035-3.326.035-4.38.027l-.549-.008c-3.594-.003-5.572-1.992-5.572-5.602V20.27c0-3.607 1.983-5.591 5.588-5.591h31.993c3.523 0 5.462 1.947 5.462 5.48.005 9.007.005 12.633 0 21.64a4.892 4.892 0 01-5.399 5.401h-.008l-5.515-.005c-6.442-.008-4.361-.018-8.483.021a1.099 1.099 0 00-.505.352c-1.059 1.71-2.067 3.45-3.074 5.192l-1.169 2.007c-.084.147-.179.292-.297.473l-1.161 1.79z"></path><rect rx=".812" height="3.043" width="32.605" y="21.789" x="17.045"></rect><rect rx=".812" height="3.043" width="32.605" y="29.228" x="17.045"></rect><rect rx=".812" height="3.043" width="19.008" y="36.668" x="17.045"></rect></g></svg>